#!OML:ASF F:\VICON\USERDATA\INSTALL\rory3\rory3.ASF
:FULLY-SPECIFIED
:DEGREES
379
root -2.7715 18.884 -8.02027 -3.74244 -44.4269 19.8364
lowerback 14.8849 2.86065 1.11525
upperback 8.35891 3.69986 4.53506
thorax 0.2791 1.68804 3.58931
lowerneck 1.22531 -13.2057 -8.207
upperneck 15.0817 -19.0806 10.0216
head 6.13639 -9.16765 3.25881
rclavicle 2.70347e-014 -4.13472e-014
rhumerus -8.22247 18.6384 -79.006
rradius 48.2635
rwrist 37.303
rhand -54.6778 16.7746
rfingers 7.12502
rthumb -27.0719 -11.3047
lclavicle 2.70347e-014 -4.13472e-014
lhumerus -41.2199 -12.3512 87.4071
lradius 119.72
lwrist 67.5773
lhand -22.7346 14.6296
lfingers 7.12502
lthumb 3.69939 44.5772
rfemur -24.5093 11.3368 5.88792
rtibia 33.3718
rfoot -25.4403 -29.5206
rtoes 6.17601
lfemur -24.5158 -5.03304 -18.5743
ltibia 18.3019
lfoot 5.97225 10.5228
ltoes -5.82168
380
root -2.77624 18.8913 -8.0639 -3.55115 -44.0758 19.809
lowerback 14.7663 2.83814 0.933384
upperback 8.35962 3.6482 4.44707
thorax 0.33916 1.66023 3.61151
lowerneck 1.05215 -12.997 -8.25555
upperneck 15.3509 -18.8094 9.98099
head 6.22418 -9.03002 3.261
rclavicle 6.99722e-014 1.90833e-014
rhumerus -8.31843 17.8279 -78.7184
rradius 48.3621
rwrist 37.6065
rhand -55.0362 16.9181
rfingers 7.12502
rthumb -27.4148 -11.1073
lclavicle 6.99722e-014 1.90833e-014
lhumerus -40.797 -12.65 87.5855
lradius 119.233
lwrist 67.7468
lhand -22.7941 14.4949
lfingers 7.12502
lthumb 3.64198 44.4435
rfemur -24.5708 11.1715 5.9354
rtibia 33.1365
rfoot -25.1655 -29.8482
rtoes 6.38418
lfemur -24.5279 -4.97695 -18.4132
ltibia 18.7517
lfoot 5.89669 11.2306
ltoes -4.41371
381
root -2.7834 18.9044 -8.10455 -3.40324 -43.7312 19.8737
lowerback 14.6291 2.84449 0.779243
upperback 8.33898 3.63942 4.26348
thorax 0.39146 1.65772 3.51111
lowerneck 0.908381 -12.8166 -8.12853
upperneck 15.565 -18.5812 9.97163
head 6.28031 -8.90476 3.24858
rclavicle 6.20208e-014 -3.18055e-014
rhumerus -8.46693 16.8961 -78.4919
rradius 48.4538
rwrist 37.8776
rhand -55.3309 16.7822
rfingers 7.12502
rthumb -27.6966 -11.1983
lclavicle 6.20208e-014 -3.18055e-014
lhumerus -40.4365 -13.2663 87.872
lradius 118.729
lwrist 68.2954
lhand -23.4284 12.4675
lfingers 7.12502
lthumb 3.0294 42.4257
rfemur -24.6231 11.0542 5.88522
rtibia 32.913
rfoot -25.1201 -30.0345
rtoes 6.96966
lfemur -24.4681 -4.91147 -18.3575
ltibia 19.0397
lfoot 5.96931 11.7937
ltoes -4.98245
382
root -2.7907 18.9221 -8.14314 -3.24543 -43.4371 19.7643
lowerback 14.5475 2.80595 0.865225
upperback 8.37795 3.59564 4.03624
thorax 0.497221 1.64435 3.23484
lowerneck 0.746138 -12.5782 -7.87406
upperneck 15.7277 -18.2701 9.95524
head 6.3028 -8.73472 3.22471
rclavicle 2.70347e-014 -5.08889e-014
rhumerus -8.39652 16.0448 -78.3475
rradius 48.3323
rwrist 38.145
rhand -55.4151 15.5642
rfingers 7.12502
rthumb -27.7771 -12.4033
lclavicle 2.70347e-014 -5.08889e-014
lhumerus -39.9812 -13.5752 87.8292
lradius 118.253
lwrist 67.8756
lhand -22.7418 14.1201
lfingers 7.12502
lthumb 3.69243 44.0679
rfemur -24.5425 11.0773 5.99109
rtibia 32.6945
rfoot -25.1215 -30.2402
rtoes 7.25385
lfemur -24.2177 -4.7707 -18.1767
ltibia 19.1616
lfoot 5.9865 12.3745
ltoes -4.83083
383
root -2.79658 18.9343 -8.18294 -2.97274 -43.1191 19.5797
lowerback 14.4186 2.75722 0.962301
upperback 8.36603 3.54283 3.86074
thorax 0.571591 1.62686 3.00855
lowerneck 0.633726 -12.29 -7.66133
upperneck 15.9287 -17.8971 9.93224
head 6.32709 -8.53854 3.21309
rclavicle 1.59028e-015 6.99722e-014
rhumerus -8.27872 15.2686 -78.146
rradius 48.0697
rwrist 38.3321
rhand -55.3851 15.0212
rfingers 7.12502
rthumb -27.7484 -12.951
lclavicle 1.59028e-015 6.99722e-014
lhumerus -39.6451 -14.151 88.1453
lradius 117.807
lwrist 67.9714
lhand -22.7601 15.0464
lfingers 7.12502
lthumb 3.67473 44.9945
rfemur -24.5631 11.0299 6.1665
rtibia 32.4828
rfoot -25.0152 -30.5541
rtoes 7.53171
lfemur -24.0131 -4.6634 -17.8783
ltibia 19.1222
lfoot 5.86732 13.216
ltoes -2.67888
384
root -2.8014 18.9408 -8.21784 -2.70044 -42.7842 19.4581
lowerback 14.2166 2.70094 0.924667
upperback 8.32592 3.46568 3.7751
thorax 0.642122 1.59138 2.95763
lowerneck 0.515575 -11.9788 -7.54219
upperneck 16.1834 -17.47 9.75079
head 6.35938 -8.32921 3.16946
rclavicle -8.90555e-014 -3.49861e-014
rhumerus -8.08231 14.5979 -77.8109
rradius 47.5801
rwrist 38.4538
rhand -55.7425 14.8762
rfingers 7.12502
rthumb -28.0901 -13.0404
lclavicle -8.90555e-014 -3.49861e-014
lhumerus -39.4559 -15.0052 88.8756
lradius 117.401
lwrist 68.7308
lhand -23.695 13.8261
lfingers 7.12502
lthumb 2.7719 43.7878
rfemur -24.6453 10.9079 6.27471
rtibia 32.2636
rfoot -24.8422 -30.8954
rtoes 7.72659
lfemur -23.8034 -4.61315 -17.6168
ltibia 18.9899
lfoot 5.51637 14.2276
ltoes -0.13461
385
root -2.80631 18.9462 -8.24862 -2.57374 -42.5664 19.3844
lowerback 14.1032 2.6392 0.886447
upperback 8.31887 3.38002 3.67603
thorax 0.701909 1.55077 2.89135
lowerneck 0.337591 -11.6392 -7.45105
upperneck 16.5442 -16.9916 9.44416
head 6.42382 -8.10021 3.08974
rclavicle -9.85972e-014 -3.18055e-015
rhumerus -7.71774 13.8011 -77.5977
rradius 46.8217
rwrist 38.7563
rhand -56.2545 15.135
rfingers 7.12502
rthumb -28.5794 -12.7003
lclavicle -9.85972e-014 -3.18055e-015
lhumerus -39.1765 -15.2397 89.2164
lradius 116.983
lwrist 67.8819
lhand -22.8584 14.8497
lfingers 7.12502
lthumb 3.57982 44.7994
rfemur -24.61 11.3003 6.30596
rtibia 32.0519
rfoot -25.1306 -31.4115
rtoes 8.39836
lfemur -23.3735 -4.3902 -17.4421
ltibia 18.7292
lfoot 5.05139 15.2423
ltoes 2.2503
386
root -2.81136 18.9498 -8.28236 -2.41318 -42.363 19.2088
lowerback 14.0703 2.56211 0.973528
upperback 8.31129 3.28942 3.53496
thorax 0.728056 1.51257 2.70807
lowerneck 0.161325 -11.2762 -7.34398
upperneck 16.914 -16.4984 9.23577
head 6.49857 -7.85821 3.03893
rclavicle 4.6118e-014 -6.36111e-015
rhumerus -7.19848 12.8865 -77.5656
rradius 45.9037
rwrist 39.1523
rhand -56.5838 15.0616
rfingers 7.12502
rthumb -28.894 -12.7204
lclavicle 4.6118e-014 -6.36111e-015
lhumerus -38.952 -15.6036 89.6177
lradius 116.598
lwrist 67.3093
lhand -20.561 20.7377
lfingers 7.12502
lthumb 5.79817 50.6384
rfemur -24.5724 11.9207 6.42562
rtibia 31.8771
rfoot -25.5048 -32.1625
rtoes 9.02587
lfemur -22.8602 -4.07343 -17.2077
ltibia 18.3579
lfoot 4.53022 16.4041
ltoes 5.12753
387
root -2.81615 18.9549 -8.31034 -2.34811 -42.0911 19.1621
lowerback 14.0412 2.46404 0.982493
upperback 8.29127 3.16395 3.37466
thorax 0.736364 1.45531 2.55263
lowerneck 0.00257715 -10.9013 -7.24793
upperneck 17.2519 -15.9975 9.09888
head 6.56797 -7.61097 3.01402
rclavicle 7.31528e-014 -1.90833e-014
rhumerus -6.82772 12.1754 -77.413
rradius 45.1639
rwrist 39.2428
rhand -56.7764 14.6821
rfingers 7.12502
rthumb -29.078 -13.0682
lclavicle 7.31528e-014 -1.90833e-014
lhumerus -38.7522 -16.0697 90.149
lradius 116.226
lwrist 67.05
lhand -21.3326 18.9119
lfingers 7.12502
lthumb 5.05316 48.8316
rfemur -24.5122 11.9661 6.50389
rtibia 31.7296
rfoot -25.4399 -32.5601
rtoes 9.19815
lfemur -22.2678 -3.77991 -17.1742
ltibia 17.9492
lfoot 4.23099 17.514
ltoes 6.24462
388
root -2.81739 18.9572 -8.33468 -2.37044 -41.8743 19.2311
lowerback 14.0005 2.37949 0.939401
upperback 8.26176 3.05063 3.21505
thorax 0.736779 1.40253 2.42565
lowerneck -0.0504803 -10.5005 -7.12067
upperneck 17.5286 -15.4409 8.85267
head 6.58499 -7.34781 2.96288
rclavicle -4.92986e-014 -4.45278e-014
rhumerus -6.5309 11.5582 -77.1234
rradius 44.3489
rwrist 39.1329
rhand -56.8507 15.6167
rfingers 7.12502
rthumb -29.1489 -12.1214
lclavicle -4.92986e-014 -4.45278e-014
lhumerus -38.492 -16.6807 90.7478
lradius 115.774
lwrist 66.81
lhand -22.6626 16.3865
lfingers 7.12502
lthumb 3.76889 46.3329
rfemur -24.4614 11.7893 6.49874
rtibia 31.563
rfoot -25.1826 -32.7357
rtoes 8.95931
lfemur -21.6226 -3.14062 -17.4207
ltibia 17.5651
lfoot 4.52743 18.0241
ltoes 4.23719
389
root -2.81237 18.9562 -8.36274 -2.38305 -41.7826 19.1263
lowerback 14.1206 2.30609 1.06895
upperback 8.22587 2.9734 3.09382
thorax 0.650722 1.3716 2.23117
lowerneck -0.0211746 -10.0799 -6.9733
upperneck 17.7991 -14.8364 8.46866
head 6.57213 -7.07279 2.8737
rclavicle -1.00187e-013 8.26944e-014
rhumerus -6.13867 11.0299 -76.9182
rradius 43.4057
rwrist 39.0337
rhand -56.8236 15.3892
rfingers 7.12502
rthumb -29.123 -12.3534
lclavicle -1.00187e-013 8.26944e-014
lhumerus -38.2142 -17.2833 91.4239
lradius 115.234
lwrist 66.4988
lhand -23.3275 15.8059
lfingers 7.12502
lthumb 3.12685 45.7627
rfemur -24.3738 11.897 6.62612
rtibia 31.4188
rfoot -25.126 -32.9529
rtoes 9.14063
lfemur -20.8848 -2.35519 -17.4852
ltibia 17.0716
lfoot 4.85738 18.4984
ltoes 3.53028
390
root -2.80938 18.9604 -8.38669 -2.22446 -41.6782 18.4676
lowerback 14.3857 2.20137 1.54729
upperback 8.21836 2.89639 3.15734
thorax 0.526625 1.34564 2.03025
lowerneck -0.0611145 -9.68701 -6.90836
upperneck 18.1878 -14.2644 8.02949
head 6.61751 -6.81772 2.76919
rclavicle 3.02153e-014 -3.49861e-014
rhumerus -5.74127 10.5197 -76.731
rradius 42.4434
rwrist 39.1392
rhand -57.3415 13.8842
rfingers 7.12502
rthumb -29.6175 -13.7716
lclavicle 3.02153e-014 -3.49861e-014
lhumerus -37.9581 -17.6257 92.1351
lradius 114.746
lwrist 66.7274
lhand -23.497 15.8566
lfingers 7.12502
lthumb 2.96313 45.8158
rfemur -23.9515 12.0341 7.26383
rtibia 31.1689
rfoot -25.2543 -33.0894
rtoes 9.59142
lfemur -20.0666 -1.71778 -16.9929
ltibia 16.7362
lfoot 4.81813 19.1539
ltoes 5.2293
391
root -2.81175 18.9653 -8.40699 -2.09675 -41.3465 18.4395
lowerback 14.2465 2.07794 1.45112
upperback 8.11368 2.72916 3.16642
thorax 0.488356 1.26134 2.11836
lowerneck -0.159045 -9.29349 -6.89629
upperneck 18.6056 -13.6831 7.57202
head 6.68741 -6.5619 2.66293
rclavicle 7.95139e-015 -2.8625e-014
rhumerus -5.36446 10.2071 -76.4039
rradius 41.5778
rwrist 38.9996
rhand -58.1317 13.5432
rfingers 7.12502
rthumb -30.3715 -13.9761
lclavicle 7.95139e-015 -2.8625e-014
lhumerus -37.7892 -17.9756 92.9718
lradius 114.308
lwrist 66.9562
lhand -23.7063 15.5498
lfingers 7.12502
lthumb 2.76102 45.5117
rfemur -23.8348 12.0008 7.25854
rtibia 30.8723
rfoot -25.4993 -33.3435
rtoes 10.1369
lfemur -19.7039 -1.538 -16.9727
ltibia 16.4659
lfoot 4.81528 19.9394
ltoes 6.55194
